<?xml version="1.0" encoding="iso-8859-1"?>
<!-- Generator: Adobe Illustrator 17.1.0, SVG Export Plug-In . SVG Version: 6.00 Build 0)  -->
<!DOCTYPE svg PUBLIC "-//W3C//DTD SVG 1.1//EN" "http://www.w3.org/Graphics/SVG/1.1/DTD/svg11.dtd">
<svg xmlns="http://www.w3.org/2000/svg" xmlns:xlink="http://www.w3.org/1999/xlink" version="1.1" id="Capa_1" x="0px" y="0px" viewBox="0 0 390.557 390.557" style="enable-background:new 0 0 390.557 390.557;" xml:space="preserve" width="512px" height="512px">
<g>
	<path d="M389.772,248.296l-42.991-68.063V55.028l-17.5-17.5H61.275l-17.5,17.5v125.204L0.784,248.296   H389.772z M311.781,72.528v87.362c-22.553-5.834-61.514-13.028-116.503-13.028s-93.95,7.194-116.503,13.028V72.528H311.781z" fill="#FFFFFF"/>
	<polygon points="0,269.831 0,304.831 40.778,304.831 40.778,353.028 75.778,353.028 75.778,304.831    314.778,304.831 314.778,353.028 349.778,353.028 349.778,304.831 390.557,304.831 390.557,269.831  " fill="#FFFFFF"/>
	<path d="M181.075,128.653v-20.389c0-12.102-17.564-21.916-39.23-21.916s-39.229,9.814-39.229,21.916v30.604   c0,0,23.14-5.826,39.045-7.332C155.98,130.179,181.075,128.653,181.075,128.653z" fill="#FFFFFF"/>
	<path d="M287.941,138.868v-30.604c0-12.102-17.564-21.916-39.23-21.916s-39.23,9.814-39.23,21.916v20.389   c0,0,25.096,1.525,39.415,2.883C264.802,133.042,287.941,138.868,287.941,138.868z" fill="#FFFFFF"/>
</g>
<g>
</g>
<g>
</g>
<g>
</g>
<g>
</g>
<g>
</g>
<g>
</g>
<g>
</g>
<g>
</g>
<g>
</g>
<g>
</g>
<g>
</g>
<g>
</g>
<g>
</g>
<g>
</g>
<g>
</g>
</svg>
