<?xml version="1.0" encoding="iso-8859-1"?>
<!-- Generator: Adobe Illustrator 18.1.1, SVG Export Plug-In . SVG Version: 6.00 Build 0)  -->
<svg xmlns="http://www.w3.org/2000/svg" xmlns:xlink="http://www.w3.org/1999/xlink" version="1.1" id="Capa_1" x="0px" y="0px" viewBox="0 0 525.153 525.153" style="enable-background:new 0 0 525.153 525.153;" xml:space="preserve" width="512px" height="512px">
<g>
	<path d="M58.379,423.054c24.179,0,43.719-19.54,43.719-43.719c0-24.31-19.54-43.85-43.719-43.85s-43.85,19.54-43.85,43.85   C14.529,403.514,34.201,423.054,58.379,423.054z M175.007,291.766c16.127,0,29.19-13.194,29.19-29.19s-13.063-29.19-29.19-29.19   c-15.995,0-29.19,13.194-29.19,29.19S159.012,291.766,175.007,291.766z M175.007,175.007c16.127,0,29.19-13.063,29.19-29.19   c0-15.995-13.063-29.058-29.19-29.058c-15.995,0-29.19,13.063-29.19,29.058C145.817,161.944,159.012,175.007,175.007,175.007z    M0,525.153h525.153v-58.379H0V525.153z M58.379,189.668c24.179,0,43.719-19.54,43.719-43.85c0-24.179-19.54-43.719-43.719-43.719   s-43.85,19.54-43.85,43.719C14.529,170.128,34.201,189.668,58.379,189.668z M58.379,306.295c24.179,0,43.719-19.54,43.719-43.719   s-19.54-43.719-43.719-43.719s-43.85,19.54-43.85,43.719S34.201,306.295,58.379,306.295z M175.007,408.394   c16.127,0,29.19-13.063,29.19-29.058c0-16.127-13.063-29.19-29.19-29.19c-15.995,0-29.19,13.063-29.19,29.19   C145.817,395.33,159.012,408.394,175.007,408.394z M408.394,393.864c8.162,0,14.66-6.499,14.66-14.529   c0-8.162-6.499-14.66-14.66-14.66c-8.03,0-14.529,6.499-14.529,14.66C393.864,387.366,400.363,393.864,408.394,393.864z M0,0   v58.379h525.153V0H0z M408.394,160.478c8.162,0,14.66-6.499,14.66-14.661c0-8.03-6.499-14.529-14.66-14.529   c-8.03,0-14.529,6.499-14.529,14.529C393.864,153.979,400.363,160.478,408.394,160.478z M408.394,277.105   c8.162,0,14.66-6.367,14.66-14.529c0-8.162-6.499-14.529-14.66-14.529c-8.03,0-14.529,6.367-14.529,14.529   S400.363,277.105,408.394,277.105z M291.766,175.007c15.995,0,29.19-13.063,29.19-29.19c0-15.995-13.194-29.058-29.19-29.058   s-29.19,13.063-29.19,29.058C262.576,161.944,275.771,175.007,291.766,175.007z M291.766,291.766   c15.995,0,29.19-13.194,29.19-29.19s-13.194-29.19-29.19-29.19s-29.19,13.194-29.19,29.19S275.771,291.766,291.766,291.766z    M291.766,408.394c15.995,0,29.19-13.063,29.19-29.058c0-16.127-13.194-29.19-29.19-29.19s-29.19,13.063-29.19,29.19   C262.576,395.33,275.771,408.394,291.766,408.394z" fill="#FFFFFF"/>
</g>
<g>
</g>
<g>
</g>
<g>
</g>
<g>
</g>
<g>
</g>
<g>
</g>
<g>
</g>
<g>
</g>
<g>
</g>
<g>
</g>
<g>
</g>
<g>
</g>
<g>
</g>
<g>
</g>
<g>
</g>
</svg>
