<?xml version="1.0" encoding="iso-8859-1"?>
<!-- Generator: Adobe Illustrator 19.0.0, SVG Export Plug-In . SVG Version: 6.00 Build 0)  -->
<svg version="1.1" id="Layer_1" xmlns="http://www.w3.org/2000/svg" xmlns:xlink="http://www.w3.org/1999/xlink" x="0px" y="0px"
	 viewBox="0 0 512 512" style="enable-background:new 0 0 512 512;" xml:space="preserve">
<polygon points="260.8,32 123.2,32 179.2,92.8 73.6,92.8 225.6,256 73.6,419.2 179.2,419.2 123.2,480 260.8,480 468.8,256 "/>
<path style="fill:#0F8EDB;" d="M280,4.8L275.2,0H49.6l56,60.8H0L180.8,256L0,451.2h105.6L51.2,512h217.6l8-1.6L512,256L280,4.8z
	 M123.2,480l56-60.8H73.6l152-163.2L73.6,92.8h105.6l-56-60.8h137.6l208,224l-208,224H123.2z"/>
<g>
</g>
<g>
</g>
<g>
</g>
<g>
</g>
<g>
</g>
<g>
</g>
<g>
</g>
<g>
</g>
<g>
</g>
<g>
</g>
<g>
</g>
<g>
</g>
<g>
</g>
<g>
</g>
<g>
</g>
</svg>
