<?xml version="1.0" encoding="iso-8859-1"?>
<!-- Generator: Adobe Illustrator 19.0.0, SVG Export Plug-In . SVG Version: 6.00 Build 0)  -->
<svg xmlns="http://www.w3.org/2000/svg" xmlns:xlink="http://www.w3.org/1999/xlink" version="1.1" id="Layer_1" x="0px" y="0px" viewBox="0 0 512 512" style="enable-background:new 0 0 512 512;" xml:space="preserve" width="512px" height="512px">
<g>
	<g>
		<path d="M508.875,259.125l-88.458-88.458l3.125-3.125c2.531-2.531,3.625-6.177,2.906-9.688c-0.719-3.51-3.156-6.427-6.49-7.76    l-17.854-7.146c2.167-8.948,3.229-17.396,3.229-25.615C405.333,52.635,352.698,0,288,0c-51.682,0-95.578,33.629-111.184,80.121    c-20.089,10.281-40.056,24.702-56.618,41.264c-27.966,27.975-45.017,50.87-53.238,71.395C28.289,200.536,0,266.376,0,352    c0,91.219,32.104,160,74.667,160s74.667-68.781,74.667-160c0-15.813-1.042-31.51-3.094-46.646    c-0.396-2.906-1.969-5.521-4.354-7.229c-2.375-1.719-5.365-2.375-8.229-1.813c-8.156,1.573-14.708,2.302-20.635,2.302    c-13.802,0-26.427-3.24-37.5-9.646c-1.292-0.74-2.729-1.208-4.208-1.365c-16.333-1.74-28.646-15.323-28.646-31.604    c0-17.646,14.354-32,32-32c17.31,0,31.368,13.835,31.901,31.018c-5.798-0.9-10.835-2.694-14.203-6.049    c-4.167-4.167-10.917-4.167-15.083,0s-4.167,10.917,0,15.083c8.896,8.896,21.24,13.135,35.615,13.135    c31.344,0,72.333-20.156,108.24-56.052c52.365-52.375,71.208-115.563,42.917-143.854c-4.167-4.167-10.917-4.167-15.083,0    s-4.167,10.917,0,15.083c5.263,5.263,7.171,14.155,6.374,24.957c-17.388-0.191-31.352-14.563-31.342-31.988    c0-24.281,26.094-42.99,52.156-24.979c1.542,0.75,2.427,1.292,2.979,1.844c33.063,33.052,23.688,94.208-23.313,152.177    c-2.323,2.865-3,6.708-1.802,10.198c1.198,3.479,4.104,6.094,7.698,6.917c18.417,4.219,33.823,4.333,51.896-0.052l7.146,17.854    c1.333,3.333,4.25,5.771,7.76,6.49c3.531,0.677,7.156-0.375,9.688-2.906l3.125-3.125l13.792,13.792c2,2,4.708,3.125,7.542,3.125    h10.667c0,5.896,4.771,10.667,10.667,10.667h21.333v21.333c0,5.896,4.771,10.667,10.667,10.667V320    c0,2.833,1.125,5.542,3.125,7.542l10.667,10.667c2,2,4.708,3.125,7.542,3.125h64c5.896,0,10.667-4.771,10.667-10.667v-64    C512,263.833,510.875,261.125,508.875,259.125z M206.052,206.052c-24.934,24.934-51.052,40.01-72.598,46.26    c-10.913-30.164-26.286-49.997-43.982-57.115c7.966-16.469,22.794-35.698,45.809-58.729    c10.751-10.751,23.095-20.417,35.861-28.529c-0.247,3.108-0.475,6.223-0.475,9.393c0,32.936,13.775,63.579,38.013,85.813    C207.747,204.111,207.013,205.091,206.052,206.052z M476.875,295.542c-2.083,2.083-4.813,3.125-7.542,3.125    c-2.729,0-5.458-1.042-7.542-3.125l-85.333-85.333c-4.167-4.167-4.167-10.917,0-15.083c4.167-4.167,10.917-4.167,15.083,0    l85.333,85.333C481.042,284.625,481.042,291.375,476.875,295.542z" fill="#91c6a5"/>
	</g>
</g>
<g>
</g>
<g>
</g>
<g>
</g>
<g>
</g>
<g>
</g>
<g>
</g>
<g>
</g>
<g>
</g>
<g>
</g>
<g>
</g>
<g>
</g>
<g>
</g>
<g>
</g>
<g>
</g>
<g>
</g>
</svg>
