<?xml version="1.0" encoding="iso-8859-1"?>
<!-- Generator: Adobe Illustrator 19.0.0, SVG Export Plug-In . SVG Version: 6.00 Build 0)  -->
<svg version="1.1" id="Layer_1" xmlns="http://www.w3.org/2000/svg" xmlns:xlink="http://www.w3.org/1999/xlink" x="0px" y="0px"
	 viewBox="0 0 511.998 511.998" style="enable-background:new 0 0 511.998 511.998;" xml:space="preserve">
<circle style="fill:#7F8499;" cx="179.04" cy="179.048" r="171.023"/>
<circle style="fill:#00C3FF;" cx="179.04" cy="179.048" r="136.818"/>
<path style="fill:#00AAF0;" d="M264.551,264.555c-75.562,0-136.818-61.256-136.818-136.818c0-31.464,10.731-60.358,28.582-83.472
	C91.592,55.109,42.221,111.241,42.221,179.044c0,75.562,61.256,136.818,136.818,136.818c44.099,0,83.215-20.952,108.236-53.346
	C279.868,263.757,272.31,264.555,264.551,264.555z"/>
<path style="fill:#707487;" d="M462.695,498.978l-127.23-127.229c-6.678-6.678-6.678-17.507,0-24.186l12.093-12.093
	c6.678-6.678,17.507-6.678,24.186,0l127.229,127.229c6.678,6.678,6.678,17.507,0,24.186l-12.092,12.093
	C480.203,505.657,469.374,505.657,462.695,498.978z"/>
<path style="fill:#5B5D6E;" d="M478.545,483.128l-127.23-127.23c-6.035-6.035-6.562-15.429-1.69-22.118
	c-0.713,0.519-1.424,1.045-2.067,1.689l-12.092,12.092c-6.68,6.68-6.68,17.507,0,24.186l127.229,127.229
	c6.68,6.68,17.507,6.68,24.186,0l12.092-12.092c0.643-0.643,1.168-1.354,1.688-2.067
	C493.974,489.689,484.58,489.162,478.545,483.128z"/>
<g>
	<path style="fill:#E4EAF8;" d="M305.819,127.737h-18.11c-3.983,0-7.91-0.928-11.472-2.709l-6.31-3.155
		c-3.536-1.768-7.434-2.695-11.387-2.708l-11.317-0.037c-14.35-0.094-25.986,11.601-25.82,25.95l0.099,8.609
		c0.162,14.052,11.6,25.357,25.652,25.357h0.295c9.445,0,17.102,7.656,17.102,17.102v11.402c0,3.701,1.2,7.302,3.42,10.261
		l22.233,29.644h7.2c11.667-20.14,18.453-43.459,18.453-68.409C315.858,160.885,312.243,143.591,305.819,127.737z"/>
	<path style="fill:#E4EAF8;" d="M258.594,67.879h-11.145c-4.722,0-8.551,3.829-8.551,8.551v8.551c0,4.722-3.829,8.551-8.551,8.551
		s-8.551,3.829-8.551,8.551v8.532c0,4.721,3.826,8.548,8.547,8.551l25.656,0.014c4.723,0.003,8.553-3.826,8.553-8.549
		c0-4.721,3.828-8.549,8.549-8.549h19.044C283.077,88.783,271.667,77.251,258.594,67.879z"/>
	<path style="fill:#E4EAF8;" d="M196.142,204.697H179.04l-21.345-14.23c-2.809-1.873-6.11-2.872-9.486-2.872h-20.476v25.052
		c0,5.719,2.858,11.058,7.616,14.23l18.038,12.025l14.837,44.511c1.353,4.059,5.151,6.796,9.429,6.796
		c5.489,0,9.939-4.45,9.939-9.939v-32.817l14.598-14.598c1.603-1.603,2.504-3.779,2.504-6.047v-13.56
		C204.693,208.525,200.864,204.697,196.142,204.697z"/>
	<path style="fill:#E4EAF8;" d="M47.695,140.991l29.579,36.975c4.869,6.085,12.239,9.628,20.032,9.628h4.773v-17.102
		c0-9.446,7.658-17.102,17.102-17.102h8.551l25.653-42.756h10.426c3.924,0,7.344-2.671,8.296-6.477l4.276-17.102
		c1.349-5.397-2.733-10.625-8.296-10.625h-29.215c-1.689,0-3.339,0.499-4.744,1.436L110.63,93.532v-8.551
		c0-4.722-3.829-8.551-8.551-8.551H89.52h-0.769C69.478,93.403,55.026,115.653,47.695,140.991z"/>
</g>
<g>
	<path style="fill:#D5DCED;" d="M77.275,177.966c4.869,6.085,12.239,9.628,20.032,9.628h4.773v-17.102
		c0-9.446,7.658-17.102,17.102-17.102h8.551l1.982-3.304c-1.2-7.289-1.982-14.72-1.982-22.349c0-18.124,3.657-35.346,10.088-51.151
		c-1.31,0.165-2.585,0.543-3.692,1.281L110.63,93.532v-8.551c0-4.722-3.829-8.551-8.551-8.551H89.52h-0.664
		c-19.319,16.944-33.842,39.179-41.193,64.523L77.275,177.966z"/>
	<path style="fill:#D5DCED;" d="M187.591,280.269v-32.817l4.072-4.072c-21.444-13.545-38.803-32.851-49.997-55.786h-13.933v25.052
		c0,5.719,2.858,11.058,7.616,14.23l18.038,12.025l14.837,44.511c1.353,4.059,5.151,6.796,9.429,6.796
		C183.141,290.209,187.591,285.759,187.591,280.269z"/>
</g>
<path d="M504.643,457.03l-127.23-127.229c-9.793-9.793-25.729-9.794-35.524,0l-0.378,0.378l-30.392-30.393
	c29.15-31.861,46.961-74.259,46.961-120.742c0-98.723-80.317-179.04-179.04-179.04S0,80.321,0,179.044s80.317,179.04,179.04,179.04
	c46.484,0,88.883-17.811,120.742-46.961l30.392,30.393l-0.378,0.378c-4.745,4.744-7.357,11.052-7.357,17.762
	c0,6.709,2.613,13.018,7.357,17.762l127.229,127.23l0,0c4.898,4.897,11.329,7.345,17.762,7.345c6.433,0,12.865-2.449,17.762-7.345
	l12.092-12.092c4.744-4.744,7.357-11.052,7.357-17.762C511.998,468.085,509.387,461.774,504.643,457.03z M179.04,342.05
	c-89.882,0-163.006-73.124-163.006-163.006S89.157,16.038,179.04,16.038s163.006,73.124,163.006,163.006
	S268.922,342.05,179.04,342.05z M493.305,481.216l-12.092,12.092c-3.542,3.542-9.307,3.543-12.849,0l0,0l-127.229-127.23
	c-1.716-1.716-2.662-3.997-2.662-6.424c0-2.427,0.945-4.708,2.662-6.425l12.092-12.092c3.542-3.541,9.306-3.542,12.849,0
	l127.229,127.23c1.716,1.716,2.662,3.998,2.662,6.424C495.967,477.217,495.022,479.5,493.305,481.216z"/>
<path d="M179.04,34.209c-79.862,0-144.835,64.973-144.835,144.835S99.177,323.879,179.04,323.879s144.835-64.974,144.835-144.835
	S258.902,34.209,179.04,34.209z M293.34,119.72h-5.631c-2.724,0-5.451-0.645-7.887-1.862l-6.31-3.154
	c-0.432-0.216-0.873-0.413-1.314-0.609c0.238-1.127,0.369-2.283,0.369-3.461c0-0.293,0.238-0.532,0.532-0.532h14.69
	C289.774,113.218,291.625,116.428,293.34,119.72z M275.745,94.067H273.1c-9.134,0-16.566,7.431-16.566,16.566
	c0,0.055,0,0.22-0.156,0.376c-0.082,0.082-0.17,0.117-0.242,0.134l-25.79,0.009c-0.294,0-0.534-0.239-0.534-0.534v-8.532
	c0-0.294,0.239-0.534,0.534-0.534c9.136,0,16.568-7.432,16.568-16.568v-8.551c0-0.294,0.239-0.534,0.534-0.534h8.647
	C263.259,81.26,269.842,87.357,275.745,94.067z M91.725,84.447h10.354c0.295,0,0.534,0.241,0.534,0.534v8.551
	c0,2.957,1.627,5.674,4.234,7.068c2.606,1.396,5.77,1.242,8.229-0.398l23.497-15.666c0.089-0.059,0.192-0.09,0.298-0.09h29.215
	c0.078,0,0.261,0,0.421,0.205s0.117,0.383,0.097,0.459l-4.276,17.102c-0.06,0.238-0.273,0.405-0.518,0.405h-10.426
	c-2.815,0-5.426,1.477-6.874,3.893l-23.318,38.863h-4.013c-13.851,0-25.119,11.268-25.119,25.119v8.763
	c-4.122-0.764-7.85-2.949-10.519-6.285l-26.968-33.838C63.487,117.977,75.734,99.217,91.725,84.447z M179.04,307.846
	c-71.022,0-128.802-57.78-128.802-128.802c0-6.856,0.544-13.586,1.581-20.154l19.195,24.085
	c6.425,8.031,16.008,12.636,26.293,12.636h22.409v17.035c0,8.418,4.182,16.231,11.186,20.9l15.749,10.5l13.967,41.902
	c2.448,7.343,9.293,12.277,17.034,12.277c9.901,0,17.955-8.055,17.955-17.955v-29.497l12.25-12.25
	c3.13-3.13,4.853-7.29,4.853-11.715v-13.561c0-9.136-7.432-16.568-16.568-16.568h-14.675l-19.326-12.883
	c-4.14-2.76-8.958-4.219-13.933-4.219h-38.112v-9.086c0-5.01,4.076-9.086,9.086-9.086h8.551c2.815,0,5.426-1.477,6.874-3.893
	l23.318-38.863h5.886c7.616,0,14.226-5.161,16.073-12.55l4.276-17.102c1.246-4.983,0.148-10.164-3.014-14.214
	c-3.162-4.049-7.922-6.372-13.059-6.372h-29.215c-3.281,0-6.458,0.962-9.19,2.783l-12.062,8.04c-1.408-3.796-4.174-6.93-7.698-8.834
	c19.983-12.758,43.702-20.16,69.118-20.16c20.703,0,40.278,4.918,57.627,13.635c-3.535,3.041-5.786,7.536-5.786,12.553v8.551
	c0,0.294-0.239,0.534-0.534,0.534c-9.136,0-16.568,7.432-16.568,16.568v8.532c0,5.483,2.69,10.34,6.809,13.358
	c-4.752,6.017-7.292,13.408-7.202,21.198l0.099,8.609c0.212,18.351,15.315,33.281,33.668,33.281h0.295
	c5.01,0,9.086,4.076,9.086,9.086v11.402c0,5.399,1.784,10.752,5.024,15.071l22.832,30.442
	C261.057,286.172,222.534,307.846,179.04,307.846z M135.749,212.647v-17.035h12.459c1.8,0,3.542,0.528,5.04,1.526l21.345,14.23
	c1.317,0.878,2.865,1.347,4.447,1.347h17.102c0.295,0,0.534,0.24,0.534,0.534v13.561c0,0.142-0.056,0.277-0.156,0.378
	l-14.598,14.598c-1.504,1.504-2.348,3.542-2.348,5.668v32.817c0,1.059-0.863,1.922-1.922,1.922c-0.828,0-1.561-0.528-1.824-1.314
	l-14.837-44.512c-0.563-1.691-1.675-3.146-3.159-4.134l-18.038-12.025C137.262,218.517,135.749,215.691,135.749,212.647z
	 M293.37,238.311l-18.985-25.312c-1.171-1.563-1.817-3.498-1.817-5.451v-11.402c0-13.851-11.268-25.119-25.119-25.119h-0.295
	c-9.614,0-17.525-7.82-17.636-17.434l-0.099-8.609c-0.056-4.772,1.768-9.262,5.134-12.644c3.113-3.129,7.187-4.914,11.572-5.149
	l12.39-0.01c2.703,0.009,5.411,0.652,7.829,1.862l6.31,3.155c4.651,2.325,9.857,3.554,15.057,3.554h12.639
	c4.845,13.536,7.493,28.109,7.493,43.29C307.841,200.403,302.609,220.559,293.37,238.311z"/>
<g>
</g>
<g>
</g>
<g>
</g>
<g>
</g>
<g>
</g>
<g>
</g>
<g>
</g>
<g>
</g>
<g>
</g>
<g>
</g>
<g>
</g>
<g>
</g>
<g>
</g>
<g>
</g>
<g>
</g>
</svg>
