<?xml version="1.0" encoding="iso-8859-1"?>
<!DOCTYPE svg PUBLIC "-//W3C//DTD SVG 1.1//EN" "http://www.w3.org/Graphics/SVG/1.1/DTD/svg11.dtd">
<svg xmlns="http://www.w3.org/2000/svg" xmlns:xlink="http://www.w3.org/1999/xlink" version="1.1" viewBox="0 0 297 297" enable-background="new 0 0 297 297" width="512px" height="512px">
  <g>
    <path d="m57.906,167.563c-1.569,2.12-2.803,4.189-3.74,6.232h76.089c-0.938-2.043-2.176-4.113-3.745-6.232-11.419-3.148-22.942-4.741-34.302-4.741-11.359-0.001-22.883,1.593-34.302,4.741z" fill="#FFFFFF"/>
    <path d="m293.254,187.917h-289.508c-1.669,0-3.026,1.357-3.026,3.026v63.796c0,1.669 1.357,3.026 3.026,3.026h289.508c1.669,0 3.026-1.357 3.026-3.026v-63.796c0-1.669-1.357-3.026-3.026-3.026z" fill="#FFFFFF"/>
    <path d="m170.489,167.563c-1.569,2.119-2.813,4.189-3.751,6.232h76.109c-0.939-2.042-2.184-4.113-3.753-6.232-11.419-3.148-22.943-4.741-34.303-4.741-11.358-0.001-22.883,1.593-34.302,4.741z" fill="#FFFFFF"/>
    <path d="m234.916,286.913c0,5.57 4.517,10.087 10.087,10.087h32.168c5.57,0 10.087-4.517 10.087-10.087v-15.026h-52.342v15.026z" fill="#FFFFFF"/>
    <path d="M9.743,286.913c0,5.57,4.517,10.087,10.087,10.087h32.168c5.57,0,10.087-4.517,10.087-10.087v-15.026H9.743V286.913z" fill="#FFFFFF"/>
    <path d="m44.249,152.311c1.267-1.521 2.954-2.636 4.85-3.205 14.281-4.286 28.786-6.458 43.109-6.458 14.323,0 28.828,2.172 43.109,6.458 1.896,0.569 3.583,1.684 4.85,3.205 3.548,4.257 6.318,8.608 8.333,13.011 2.013-4.402 4.784-8.754 8.331-13.011 1.268-1.521 2.955-2.636 4.85-3.205 14.282-4.286 28.786-6.458 43.11-6.458 14.323,0 28.827,2.172 43.109,6.458 1.896,0.569 3.584,1.684 4.851,3.205 5.808,6.97 9.536,14.191 11.238,21.484h20.241v-30.56c0-22.248-18.1-40.349-40.348-40.349h-190.765c-22.247,0-40.348,18.101-40.348,40.349v30.56h20.233c1.7-7.293 5.438-14.514 11.247-21.484z" fill="#FFFFFF"/>
    <path d="m120.592,71.952c11.062,9.945 21.999,17.001 22.459,17.297 1.661,1.065 3.555,1.599 5.45,1.599 1.895,0 3.79-0.533 5.45-1.6 0.46-0.296 11.396-7.351 22.458-17.297 16.492-14.826 24.509-27.95 24.509-40.12 5.68434e-14-17.552-14.02-31.831-31.251-31.831-8.157,0-15.595,3.2-21.166,8.431-5.571-5.231-13.009-8.431-21.166-8.431-17.233,0-31.253,14.279-31.253,31.831 0,12.172 8.018,25.295 24.51,40.121z" fill="#FFFFFF"/>
  </g>
</svg>
