<?xml version="1.0" encoding="iso-8859-1"?>
<!-- Generator: Adobe Illustrator 16.0.0, SVG Export Plug-In . SVG Version: 6.00 Build 0)  -->
<!DOCTYPE svg PUBLIC "-//W3C//DTD SVG 1.1//EN" "http://www.w3.org/Graphics/SVG/1.1/DTD/svg11.dtd">
<svg xmlns="http://www.w3.org/2000/svg" xmlns:xlink="http://www.w3.org/1999/xlink" version="1.1" id="Capa_1" x="0px" y="0px" width="512px" height="512px" viewBox="0 0 93.379 93.378" style="enable-background:new 0 0 93.379 93.378;" xml:space="preserve">
<g>
	<g>
		<path d="M92.883,40.404L65.545,2.186c-0.705-0.988-1.517-1.51-2.347-1.51c-0.801,0-1.616,0.502-2.132,1.311L33.696,40.25    c-0.851,1.189-0.575,2.85,0.615,3.699c1.155,0.826,2.883,0.531,3.699-0.613l2.404-3.361v35.686c0,0.826,0.673,1.5,1.5,1.5h42.75    c0.827,0,1.5-0.674,1.5-1.5V40.128l2.404,3.361c0.816,1.145,2.551,1.439,3.7,0.615c0.575-0.412,0.958-1.025,1.073-1.723    C93.459,41.684,93.295,40.98,92.883,40.404z M79.68,72.177h-6.393V60.581c0-5.574-4.535-10.106-10.111-10.106    c-5.573,0-10.108,4.532-10.108,10.106v11.599h-6.393V37.486H79.68V72.177z" fill="#FFFFFF"/>
		<path d="M51.418,88.072h-7.67l-17.95-26.355l-17.313-3.4L2.403,88.367c-0.4,1.923,0.834,3.804,2.756,4.205    c0.244,0.052,0.488,0.074,0.728,0.074c1.649,0,3.128-1.151,3.478-2.83l3.43-16.471l6.12,12.184l-3.198-0.004c0,0-0.001,0-0.003,0    c-1.962,0-3.554,1.588-3.556,3.552c-0.001,1.963,1.59,3.596,3.551,3.6l35.708,0.027c1.281,0,2.316-1.037,2.316-2.318    C53.733,89.107,52.698,88.072,51.418,88.072z" fill="#FFFFFF"/>
		<path d="M8.2,51.048c0.405,0.137,0.391,4.264,0.391,4.264l16.198,3.021l2.663-15.104c0.26-0.969,0.66-1.914,1.132-2.805    c2.166-4.092-0.709-4.957-1.386-5.031c-1.682-0.186-3.087,0.619-4.138,1.961c-0.587,0.748-1.156,1.51-1.727,2.273    c-0.165,0.225-0.34,0.289-0.625,0.223c-0.475-0.109-0.969-0.172-1.456-0.232c-2.79-0.352-4.816,0.84-7.621,0.875    c-0.948,0.012-8.459-3.453-10.465-0.889c-2.19,2.795-0.988,6.033,1.069,8.156c1.207,1.253,2.646,2.138,4.283,2.705    C7.079,50.658,7.64,50.857,8.2,51.048z" fill="#FFFFFF"/>
	</g>
</g>
<g>
</g>
<g>
</g>
<g>
</g>
<g>
</g>
<g>
</g>
<g>
</g>
<g>
</g>
<g>
</g>
<g>
</g>
<g>
</g>
<g>
</g>
<g>
</g>
<g>
</g>
<g>
</g>
<g>
</g>
</svg>
