<?xml version="1.0" encoding="iso-8859-1"?>
<!-- Generator: Adobe Illustrator 19.0.0, SVG Export Plug-In . SVG Version: 6.00 Build 0)  -->
<svg version="1.1" id="Layer_1" xmlns="http://www.w3.org/2000/svg" xmlns:xlink="http://www.w3.org/1999/xlink" x="0px" y="0px"
	 viewBox="0 0 512 512" style="enable-background:new 0 0 512 512;" xml:space="preserve">
<circle style="fill:#CFDCE5;" cx="256" cy="256" r="256"/>
<g>
	<path style="fill:#415E72;" d="M36.416,290.272c5.08,0.232,9.488-6.024,14.584-21.768c3.256-9.856,12.632-16.376,23-16
		c0,0,9.24,12,11.504,59.488c2.4,50.896,20.352,32.8,24.904,53.296c8.112,36.528,22.8,42.272,36.616,54.928
		s27.2-17.208,36.616-54.928s20.16-22.632,36.616-36.616s13.152-27.008,36.616-36.616s17.824,0.68,18.312-18.312
		c0.32-12.432,2.312-24.68,6.168-27.488c10.632-7.752,8.992-9.504,12.144-27.448s-43.32-37.272-36.616-54.928
		c4.56-11.776,4.56-24.84,0-36.616c0,0-20.8-10.04-36.616,36.616c-8.656,25.456-15.32-11.392-18.312-18.312s0-36.616,0-36.616
		c-25.768-9.376-12.952,9.376-36.616,0s-30.992-8.848-18.312-36.616c0,0,6.888-29.112-12-41.96
		C52.896,74.416,1.208,159.616,0.08,252.8C10.352,268.432,26.224,289.816,36.416,290.272z"/>
	<path style="fill:#415E72;" d="M427.72,66.152c2.944,10.552,7.648,27.2,12.264,42.8c7.512,25.32,0.456,42.4,0,54.928
		s18.856,56.344,18.312,54.928c6.64,4.576,11.552,11.248,13.952,18.944c0.944,15.536,22.936,20.456,39.312,32.8
		c0.272-4.8,0.44-9.68,0.44-14.568C512.072,183.624,481.44,114.632,427.72,66.152z"/>
	<path style="fill:#415E72;" d="M293.504,72.328c34.52,5.768,53.488,19.952,71.352,21.736c15.84,1.6,0.4-22.568-13.424-40.576
		c-7.624-11.256-10.728-24.96-8.712-38.4c-23.944-8.616-49.048-13.592-74.472-14.776c8.896,10.936,21.752,23.544,23.504,29.472
		C294.296,38.4,268.992,68.232,293.504,72.328z"/>
	<path style="fill:#415E72;" d="M498.84,337c-9.664-11.744-31.688-36.248-40.544-26.64c-11.936,12.936-0.8,54.792-18.312,54.928
		s-43.48,17.6-57.12,45.376c-13.248,26.96-58.224,16.432-55.016,91.04C408.352,478.072,472.216,416.568,498.84,337z"/>
</g>
<g>
</g>
<g>
</g>
<g>
</g>
<g>
</g>
<g>
</g>
<g>
</g>
<g>
</g>
<g>
</g>
<g>
</g>
<g>
</g>
<g>
</g>
<g>
</g>
<g>
</g>
<g>
</g>
<g>
</g>
</svg>
