<?xml version="1.0" encoding="iso-8859-1"?>
<!-- Generator: Adobe Illustrator 16.0.0, SVG Export Plug-In . SVG Version: 6.00 Build 0)  -->
<!DOCTYPE svg PUBLIC "-//W3C//DTD SVG 1.1//EN" "http://www.w3.org/Graphics/SVG/1.1/DTD/svg11.dtd">
<svg xmlns="http://www.w3.org/2000/svg" xmlns:xlink="http://www.w3.org/1999/xlink" version="1.1" id="Capa_1" x="0px" y="0px" width="512px" height="512px" viewBox="0 0 956.199 956.199" style="enable-background:new 0 0 956.199 956.199;" xml:space="preserve">
<g>
	<path d="M659,471.5c-0.4-9.7-2.4-19.4-5.801-28.5c-2-5.2-4.6-10.301-7.6-15c-3.6-5.601-7.701-11.601-12.801-16.101L403.5,182.7   c-35.101-35.1-92.101-35.1-127.3,0c-35.1,35.1-35.1,92.1,0,127.3l75.6,75.6h-255.1c-49.7,0-90,40.3-90,90c0,49.701,40.3,90,90,90   h255.1l-80.5,80.6c-35.1,35.102-35.1,92.102,0,127.301c17.6,17.6,40.6,26.4,63.6,26.4S381,791.1,398.5,773.5l234.2-234.199   c13.801-14.701,23.4-32.5,25.699-52.801C659,481.5,659.199,476.5,659,471.5z" fill="#FFFFFF"/>
	<path d="M859.5,0c-49.701,0-90,40.3-90,90v776.199c0,49.701,40.299,90,90,90c49.699,0,90-40.299,90-90V90   C949.5,40.3,909.199,0,859.5,0z" fill="#FFFFFF"/>
</g>
<g>
</g>
<g>
</g>
<g>
</g>
<g>
</g>
<g>
</g>
<g>
</g>
<g>
</g>
<g>
</g>
<g>
</g>
<g>
</g>
<g>
</g>
<g>
</g>
<g>
</g>
<g>
</g>
<g>
</g>
</svg>
