<?xml version="1.0" encoding="iso-8859-1"?>
<!-- Generator: Adobe Illustrator 16.0.0, SVG Export Plug-In . SVG Version: 6.00 Build 0)  -->
<!DOCTYPE svg PUBLIC "-//W3C//DTD SVG 1.1//EN" "http://www.w3.org/Graphics/SVG/1.1/DTD/svg11.dtd">
<svg xmlns="http://www.w3.org/2000/svg" xmlns:xlink="http://www.w3.org/1999/xlink" version="1.1" id="Capa_1" x="0px" y="0px" width="512px" height="512px" viewBox="0 0 497.359 497.36" style="enable-background:new 0 0 497.359 497.36;" xml:space="preserve">
<g>
	<g>
		<circle cx="386.559" cy="206.234" r="80.895" fill="#FFFFFF"/>
		<path d="M212.304,221.333l-101.292,72.561c4.385-0.899,9.206-1.451,14.585-1.451c24.277,0,37.733,10.773,46.638,17.902    c6.524,5.226,8.722,6.984,15.527,6.984c6.806,0,9.004-1.76,15.529-6.984c8.904-7.129,22.361-17.902,46.639-17.902    c24.276,0,37.733,10.773,46.639,17.902c6.525,5.226,8.725,6.984,15.531,6.984c6.805,0,9.004-1.76,15.529-6.984    c2.967-2.375,6.457-5.154,10.67-7.806l-70.828-119.685l-96.774-72.232l-110.56,31.361L46.23,205.774l114.974-22.583    L212.304,221.333z" fill="#FFFFFF"/>
		<path d="M450.717,329.981c-6.525,5.225-8.727,6.984-15.535,6.984s-9.008-1.761-15.535-6.984    c-8.904-7.129-22.363-17.902-46.641-17.902s-37.734,10.773-46.639,17.902c-6.523,5.225-8.723,6.984-15.529,6.984    c-6.809,0-9.004-1.761-15.531-6.984c-8.904-7.129-22.361-17.902-46.639-17.902c-24.277,0-37.733,10.773-46.638,17.902    c-6.524,5.225-8.722,6.984-15.529,6.984c-6.806,0-9.003-1.761-15.527-6.984c-8.905-7.129-22.361-17.902-46.638-17.902    c-24.277,0-37.734,10.773-46.639,17.902c-6.525,5.225-8.723,6.984-15.53,6.984c-6.806,0-9.004-1.761-15.529-6.984    C37.734,322.852,24.277,312.079,0,312.079v49.773c6.806,0,9.004,1.76,15.529,6.982c8.904,7.131,22.361,17.903,46.638,17.903    c24.278,0,37.734-10.772,46.639-17.902c6.524-5.225,8.723-6.983,15.53-6.983c6.806,0,9.004,1.76,15.528,6.982    c8.904,7.131,22.361,17.903,46.638,17.903c24.277,0,37.733-10.772,46.638-17.903c6.525-5.224,8.723-6.982,15.529-6.982    c6.808,0,9.005,1.76,15.53,6.983c8.904,7.13,22.361,17.902,46.641,17.902c24.275,0,37.732-10.772,46.637-17.903    c6.525-5.224,8.723-6.982,15.531-6.982s9.008,1.761,15.533,6.983c8.904,7.13,22.363,17.902,46.643,17.902    s37.736-10.772,46.641-17.902c6.527-5.224,8.727-6.983,15.535-6.983v-49.773C473.08,312.078,459.623,322.852,450.717,329.981z" fill="#FFFFFF"/>
	</g>
</g>
<g>
</g>
<g>
</g>
<g>
</g>
<g>
</g>
<g>
</g>
<g>
</g>
<g>
</g>
<g>
</g>
<g>
</g>
<g>
</g>
<g>
</g>
<g>
</g>
<g>
</g>
<g>
</g>
<g>
</g>
</svg>
