<?xml version="1.0" encoding="iso-8859-1"?>
<!-- Generator: Adobe Illustrator 19.0.0, SVG Export Plug-In . SVG Version: 6.00 Build 0)  -->
<svg version="1.1" id="Layer_1" xmlns="http://www.w3.org/2000/svg" xmlns:xlink="http://www.w3.org/1999/xlink" x="0px" y="0px"
	 viewBox="0 0 512 512" style="enable-background:new 0 0 512 512;" xml:space="preserve">
<polygon points="438.4,419.2 286.4,256 438.4,92.8 332.8,92.8 388.8,32 251.2,32 43.2,256 251.2,480 388.8,480 332.8,419.2 "/>
<path style="fill:#0F8EDB;" d="M331.2,256L512,60.8H406.4L460.8,0H243.2l-8,1.6L0,256l232,251.2l4.8,4.8h225.6l-56-60.8H512
	L331.2,256z M251.2,480l-208-224l208-224h137.6l-56,60.8h105.6L286.4,256l152,163.2H332.8l56,60.8H251.2z"/>
<g>
</g>
<g>
</g>
<g>
</g>
<g>
</g>
<g>
</g>
<g>
</g>
<g>
</g>
<g>
</g>
<g>
</g>
<g>
</g>
<g>
</g>
<g>
</g>
<g>
</g>
<g>
</g>
<g>
</g>
</svg>
