<?xml version="1.0" encoding="iso-8859-1"?>
<!-- Generator: Adobe Illustrator 18.1.1, SVG Export Plug-In . SVG Version: 6.00 Build 0)  -->
<svg xmlns="http://www.w3.org/2000/svg" xmlns:xlink="http://www.w3.org/1999/xlink" version="1.1" id="Capa_1" x="0px" y="0px" viewBox="0 0 306.404 306.404" style="enable-background:new 0 0 306.404 306.404;" xml:space="preserve" width="512px" height="512px">
<g>
	<g>
		<g>
			<g>
				<path d="M264.186,100.313H222.36c-17.046-23.644-44.508-37.747-73.493-37.747      c-30.66,0-58.976,15.316-75.81,40.994H42.223C18.939,103.56,0,122.499,0,145.772v14.87c0,23.268,18.939,42.196,42.223,42.196      h30.834c16.823,25.683,45.139,41,75.81,41c31.557,0,61.282-16.932,77.654-44.236h37.671c23.285,0,42.213-18.939,42.213-42.213      v-14.86C306.399,119.241,287.476,100.313,264.186,100.313z M126.165,125.365l-16.013,56.496h-8.469l-7.163-29.643      c-1.561-6.375-2.556-11.096-3.253-15.452c-0.995,5.031-2.165,9.818-3.791,15.48l-8.093,29.621h-8.469l-0.103-0.441      l-14.419-56.778h8.855l0.114,0.441l6.657,28.37c1.43,6.059,2.709,11.917,3.666,16.796c0.984-5.047,2.513-10.818,4.117-16.894      l7.598-28.707h8.469l0.114,0.441l6.815,28.457c1.305,5.504,2.611,11.259,3.486,16.502c1.028-4.95,2.312-10.062,3.655-15.425      l0.31-1.262l7.511-28.707h8.61L126.165,125.365z M138.941,181.861h-8.458v-41.418h8.458V181.861z M138.451,133.241      c-0.957,0.99-2.344,1.528-3.905,1.528c-2.845,0-4.982-2.176-4.982-5.064c0-2.937,2.208-5.151,5.151-5.151      c2.926,0,5.064,2.159,5.064,5.151C139.822,131.049,139.354,132.311,138.451,133.241z M301.868,157.39      c0,20.761-16.899,37.666-37.682,37.666l-73.982,0.016c-15.3,0-28.74,0-35.756-0.354c7.06-3.329,18.128-8.795,18.128-18.667      v-33.521c0-20.777,16.899-37.676,37.687-37.676h53.923c20.777,0,37.682,16.899,37.682,37.676V157.39z" fill="#FFFFFF"/>
			</g>
			<g>
				<polygon points="192.733,180.61 200.816,180.61 200.816,156.362 221.098,156.362 221.098,149.482       200.816,149.482 200.816,132.822 222.768,132.822 222.768,125.865 192.733,125.865     " fill="#FFFFFF"/>
			</g>
		</g>
		<g>
			<rect x="229.202" y="140.981" width="8.137" height="39.629" fill="#FFFFFF"/>
		</g>
		<g>
			<path d="M233.265,125.784c-2.817,0-4.95,2.127-4.95,4.95c0,2.774,2.056,4.868,4.803,4.868     c1.501,0,2.834-0.522,3.753-1.474c0.854-0.897,1.305-2.099,1.256-3.399C238.128,127.862,236.093,125.784,233.265,125.784z" fill="#FFFFFF"/>
		</g>
	</g>
</g>
<g>
</g>
<g>
</g>
<g>
</g>
<g>
</g>
<g>
</g>
<g>
</g>
<g>
</g>
<g>
</g>
<g>
</g>
<g>
</g>
<g>
</g>
<g>
</g>
<g>
</g>
<g>
</g>
<g>
</g>
</svg>
